/* XPM */
static char * CrossMidiLogo_xpm[] = {
"32 32 40 1",
" 	c #FFFFFF",
".	c #FEFAFA",
"+	c #FDF6F6",
"@	c #FAE7E7",
"#	c #E51111",
"$	c #C3C3F3",
"%	c #F6F6FD",
"&	c #F7D4D4",
"*	c #DDDEF8",
"=	c #1123E5",
"-	c #D4D5F6",
";	c #F1B3B3",
">	c #F4C7C7",
",	c #E6E6FA",
"'	c #F6D5D5",
")	c #EBC0CA",
"!	c #C8C9F4",
"~	c #F6D4D4",
"{	c #F5CFCF",
"]	c #DC134B",
"^	c #F8DEDE",
"/	c #DDBBD4",
"(	c #FAE6E6",
"_	c #E1CFE6",
":	c #CE1673",
"<	c #B4B5F1",
"[	c #ED9A9A",
"}	c #C6C2EF",
"|	c #F0B0B0",
"1	c #EE9C9C",
"2	c #CFCFF5",
"3	c #F8DDDD",
"4	c #EFA6A6",
"5	c #E4DEF2",
"6	c #D796B6",
"7	c #BE188E",
"8	c #F3BFBF",
"9	c #FBECEC",
"0	c #F1B7B7",
"a	c #F5CDCD",
"                                ",
" ..                         +   ",
" @#   $$               %   ##   ",
" .&#  *=              =-  #;    ",
"   >##,==            ==, ##     ",
"    '#)==,          !==,~#{     ",
"      ]=+=%        ,= ==#~      ",
"       =#^=        != /=#+      ",
"       ==#==      -= (_=(       ",
"       -= #==    %= +#]=        ",
"       -=  :==   -= ##%=        ",
"       -=   <=  %= #[  =%       ",
"       ,=    }= ,=#|   =%       ",
"       ,=     -==#1    2=       ",
"       ,=     *==#     ,=       ",
"       ,=      -]#     ,=       ",
"       ,=      #>+#    %=       ",
"       ,=     ##  ##    =       ",
"       ,=    >#    #(   =       ",
"       ,,=  3#      #(  =       ",
"       ,,= 3#       ##{ =%      ",
"       ,,=(##        ## =,      ",
"       ,,=4#          #(=2      ",
"       ,,=#            #=5      ",
"       ,6=              =7+     ",
"      +::=              =!##    ",
"     ~#:,=              =! ##   ",
"    {#(,,=              =!  {#  ",
"   8#9 ,,=              =-%  ## ",
"  0#   ,=               =       ",
"  a#   ,=                       ",
"                                "};
